<svg width="1245" height="1250" viewBox="0 0 1245 1250" fill="none" xmlns="http://www.w3.org/2000/svg">
<path d="M622.5 0C452.977 0 307.194 101.645 242.773 247.314C295.234 223.352 353.558 210 415 210C490.59 210 561.459 230.209 622.5 265.52C683.541 230.209 754.41 210 830 210C891.442 210 949.766 223.352 1002.23 247.314C937.806 101.645 792.023 0 622.5 0Z" fill="#00980F"/>
<path d="M0 625C0 786.525 92.2803 926.497 226.997 995.072C206.386 945.814 195 891.737 195 835C195 753.927 218.248 678.284 258.44 614.374C225.967 555.204 207.5 487.259 207.5 415C207.5 355.325 220.095 298.592 242.773 247.314C99.5368 312.736 0 457.244 0 625Z" fill="#00980F"/>
<path d="M1245 625C1245 457.244 1145.46 312.736 1002.23 247.314C1024.9 298.592 1037.5 355.325 1037.5 415C1037.5 496.073 1014.25 571.716 974.06 635.626C1006.53 694.796 1025 762.741 1025 835C1025 897.293 1011.28 956.38 986.685 1009.4C1138.21 947.577 1245 798.759 1245 625Z" fill="#00980F"/>
<path d="M610 1250C776.905 1250 920.798 1151.47 986.685 1009.4C938.339 1029.13 885.439 1040 830 1040C754.41 1040 683.541 1019.79 622.5 984.48C561.459 1019.79 490.59 1040 415 1040C347.327 1040 283.437 1023.8 226.997 995.072C289.647 1144.8 437.538 1250 610 1250Z" fill="#00980F"/>
<path d="M415 210C353.558 210 295.234 223.352 242.773 247.314C220.095 298.592 207.5 355.325 207.5 415C207.5 487.259 225.967 555.204 258.44 614.374C304.39 541.308 372.488 483.576 453.315 450.597C489.363 372.87 548.76 308.176 622.5 265.52C561.459 230.209 490.59 210 415 210Z" fill="#044389"/>
<path d="M1037.5 415C1037.5 355.325 1024.9 298.592 1002.23 247.314C949.766 223.352 891.442 210 830 210C754.41 210 683.541 230.209 622.5 265.52C700.727 310.772 762.812 380.825 798.003 464.928C872.454 502.826 933.944 562.529 974.06 635.626C1014.25 571.716 1037.5 496.073 1037.5 415Z" fill="#044389"/>
<path d="M830 1040C885.439 1040 938.339 1029.13 986.685 1009.4C1011.28 956.38 1025 897.293 1025 835C1025 762.741 1006.53 694.796 974.06 635.626C931.086 703.96 868.74 758.881 794.727 792.686C759.031 873.402 698.354 940.601 622.5 984.48C683.541 1019.79 754.41 1040 830 1040Z" fill="#044389"/>
<path d="M195 835C195 891.737 206.386 945.814 226.997 995.072C283.437 1023.8 347.327 1040 415 1040C490.59 1040 561.459 1019.79 622.5 984.48C546.646 940.601 485.969 873.402 450.273 792.686C368.734 755.444 301.356 692.573 258.44 614.374C218.248 678.284 195 753.927 195 835Z" fill="#044389"/>
<path d="M453.315 450.597C501.661 430.871 554.561 420 610 420C677.673 420 741.562 436.198 798.003 464.928C762.812 380.825 700.727 310.772 622.5 265.52C548.76 308.176 489.363 372.87 453.315 450.597Z" fill="white"/>
<path d="M450.273 792.686C427.595 741.408 415 684.675 415 625C415 562.707 428.725 503.62 453.315 450.597C372.488 483.576 304.39 541.308 258.44 614.374C301.356 692.573 368.734 755.444 450.273 792.686Z" fill="white"/>
<path d="M798.003 464.928C818.614 514.186 830 568.263 830 625C830 684.675 817.405 741.408 794.727 792.686C868.74 758.881 931.086 703.96 974.06 635.626C933.944 562.529 872.454 502.826 798.003 464.928Z" fill="white"/>
<path d="M794.727 792.686C742.266 816.647 683.942 830 622.5 830C561.058 830 502.734 816.648 450.273 792.686C485.969 873.402 546.646 940.601 622.5 984.48C698.354 940.601 759.031 873.402 794.727 792.686Z" fill="white"/>
<path d="M622.5 830C683.942 830 742.266 816.647 794.727 792.686C817.405 741.408 830 684.675 830 625C830 568.263 818.614 514.186 798.003 464.928C741.562 436.198 677.673 420 610 420C554.561 420 501.661 430.871 453.315 450.597C428.725 503.62 415 562.707 415 625C415 684.675 427.595 741.408 450.273 792.686C502.734 816.648 561.058 830 622.5 830Z" fill="#FFDF3A"/>
</svg>
